<svg width="16" height="16" viewBox="0 0 16 16" fill="none" xmlns="http://www.w3.org/2000/svg">
<path d="M5.66543 2.56195C5.90763 2.56195 6.13076 2.69329 6.24833 2.90504L7.06379 4.37397C7.17056 4.56631 7.17559 4.79894 7.07719 4.99571L6.29159 6.56694C6.29159 6.56694 6.51926 7.73741 7.47206 8.69021C8.42486 9.64301 9.59143 9.86674 9.59143 9.86674L11.1624 9.08127C11.3593 8.98281 11.5921 8.98791 11.7845 9.09487L13.2576 9.91387C13.4691 10.0315 13.6003 10.2545 13.6003 10.4965V12.1877C13.6003 13.0489 12.8004 13.671 11.9843 13.3956C10.3084 12.8301 7.70679 11.7534 6.05786 10.1044C4.40889 8.45547 3.33216 5.85391 2.76665 4.17794C2.49131 3.36191 3.11334 2.56195 3.97456 2.56195H5.66543Z" stroke="white" stroke-linejoin="round"/>
</svg>
