<svg width="16" height="16" viewBox="0 0 16 16" fill="none" xmlns="http://www.w3.org/2000/svg">
<g clip-path="url(#clip0_388_1659)">
<path d="M8.00008 12.3333C10.3933 12.3333 12.3334 10.3932 12.3334 8C12.3334 5.60677 10.3933 3.66667 8.00008 3.66667C5.60685 3.66667 3.66675 5.60677 3.66675 8C3.66675 10.3932 5.60685 12.3333 8.00008 12.3333Z" stroke="url(#paint0_linear_388_1659)" stroke-linejoin="round"/>
<path d="M8.00008 2C8.46031 2 8.83341 1.6269 8.83341 1.16667C8.83341 0.706429 8.46031 0.333332 8.00008 0.333332C7.53985 0.333332 7.16675 0.706429 7.16675 1.16667C7.16675 1.6269 7.53985 2 8.00008 2Z" fill="url(#paint1_linear_388_1659)"/>
<path d="M12.8333 4C13.2936 4 13.6667 3.6269 13.6667 3.16667C13.6667 2.70643 13.2936 2.33333 12.8333 2.33333C12.3731 2.33333 12 2.70643 12 3.16667C12 3.6269 12.3731 4 12.8333 4Z" fill="url(#paint2_linear_388_1659)"/>
<path d="M14.8333 8.83333C15.2936 8.83333 15.6667 8.46023 15.6667 8C15.6667 7.53977 15.2936 7.16667 14.8333 7.16667C14.3731 7.16667 14 7.53977 14 8C14 8.46023 14.3731 8.83333 14.8333 8.83333Z" fill="url(#paint3_linear_388_1659)"/>
<path d="M12.8333 13.6667C13.2936 13.6667 13.6667 13.2936 13.6667 12.8333C13.6667 12.3731 13.2936 12 12.8333 12C12.3731 12 12 12.3731 12 12.8333C12 13.2936 12.3731 13.6667 12.8333 13.6667Z" fill="url(#paint4_linear_388_1659)"/>
<path d="M8.00008 15.6667C8.46031 15.6667 8.83341 15.2936 8.83341 14.8333C8.83341 14.3731 8.46031 14 8.00008 14C7.53985 14 7.16675 14.3731 7.16675 14.8333C7.16675 15.2936 7.53985 15.6667 8.00008 15.6667Z" fill="url(#paint5_linear_388_1659)"/>
<path d="M3.16659 13.6667C3.62682 13.6667 3.99992 13.2936 3.99992 12.8333C3.99992 12.3731 3.62682 12 3.16659 12C2.70635 12 2.33325 12.3731 2.33325 12.8333C2.33325 13.2936 2.70635 13.6667 3.16659 13.6667Z" fill="url(#paint6_linear_388_1659)"/>
<path d="M1.16659 8.83333C1.62682 8.83333 1.99992 8.46023 1.99992 8C1.99992 7.53977 1.62682 7.16667 1.16659 7.16667C0.706349 7.16667 0.333252 7.53977 0.333252 8C0.333252 8.46023 0.706349 8.83333 1.16659 8.83333Z" fill="url(#paint7_linear_388_1659)"/>
<path d="M3.16659 4C3.62682 4 3.99992 3.6269 3.99992 3.16667C3.99992 2.70643 3.62682 2.33333 3.16659 2.33333C2.70635 2.33333 2.33325 2.70643 2.33325 3.16667C2.33325 3.6269 2.70635 4 3.16659 4Z" fill="url(#paint8_linear_388_1659)"/>
</g>
<defs>
<linearGradient id="paint0_linear_388_1659" x1="8.00232" y1="27.7167" x2="8.00232" y2="4.76174" gradientUnits="userSpaceOnUse">
<stop stop-color="#2BD4EE"/>
<stop offset="1" stop-color="#1743E1"/>
</linearGradient>
<linearGradient id="paint1_linear_388_1659" x1="8.00051" y1="4.95833" x2="8.00051" y2="0.543922" gradientUnits="userSpaceOnUse">
<stop stop-color="#2BD4EE"/>
<stop offset="1" stop-color="#1743E1"/>
</linearGradient>
<linearGradient id="paint2_linear_388_1659" x1="12.8338" y1="6.95833" x2="12.8338" y2="2.54392" gradientUnits="userSpaceOnUse">
<stop stop-color="#2BD4EE"/>
<stop offset="1" stop-color="#1743E1"/>
</linearGradient>
<linearGradient id="paint3_linear_388_1659" x1="14.8338" y1="11.7917" x2="14.8338" y2="7.37726" gradientUnits="userSpaceOnUse">
<stop stop-color="#2BD4EE"/>
<stop offset="1" stop-color="#1743E1"/>
</linearGradient>
<linearGradient id="paint4_linear_388_1659" x1="12.8338" y1="16.625" x2="12.8338" y2="12.2106" gradientUnits="userSpaceOnUse">
<stop stop-color="#2BD4EE"/>
<stop offset="1" stop-color="#1743E1"/>
</linearGradient>
<linearGradient id="paint5_linear_388_1659" x1="8.00051" y1="18.625" x2="8.00051" y2="14.2106" gradientUnits="userSpaceOnUse">
<stop stop-color="#2BD4EE"/>
<stop offset="1" stop-color="#1743E1"/>
</linearGradient>
<linearGradient id="paint6_linear_388_1659" x1="3.16702" y1="16.625" x2="3.16702" y2="12.2106" gradientUnits="userSpaceOnUse">
<stop stop-color="#2BD4EE"/>
<stop offset="1" stop-color="#1743E1"/>
</linearGradient>
<linearGradient id="paint7_linear_388_1659" x1="1.16702" y1="11.7917" x2="1.16702" y2="7.37726" gradientUnits="userSpaceOnUse">
<stop stop-color="#2BD4EE"/>
<stop offset="1" stop-color="#1743E1"/>
</linearGradient>
<linearGradient id="paint8_linear_388_1659" x1="3.16702" y1="6.95833" x2="3.16702" y2="2.54392" gradientUnits="userSpaceOnUse">
<stop stop-color="#2BD4EE"/>
<stop offset="1" stop-color="#1743E1"/>
</linearGradient>
<clipPath id="clip0_388_1659">
<rect width="16" height="16" fill="white"/>
</clipPath>
</defs>
</svg>
