<svg width="16" height="16" viewBox="0 0 16 16" fill="none" xmlns="http://www.w3.org/2000/svg">
<g clip-path="url(#clip0_493_495)">
<path d="M8.94287 12.3906L12.3906 8.94287" stroke="white" stroke-linecap="round" stroke-linejoin="round"/>
<path d="M7.05735 8.94287L3.60962 12.3906" stroke="white" stroke-linecap="round" stroke-linejoin="round"/>
<path d="M8.94287 7.05723L12.3906 3.6095" stroke="white" stroke-linecap="round" stroke-linejoin="round"/>
<path d="M3.60962 7.05723L7.05735 3.6095" stroke="white" stroke-linecap="round" stroke-linejoin="round"/>
<path d="M3.99992 2.66671C3.99992 3.40307 3.40295 4.00004 2.66659 4.00004C1.93021 4.00004 1.33325 3.40307 1.33325 2.66671C1.33325 1.93033 1.93021 1.33337 2.66659 1.33337C3.40295 1.33337 3.99992 1.93033 3.99992 2.66671Z" stroke="white" stroke-linecap="round" stroke-linejoin="round"/>
<path d="M9.33341 2.66671C9.33341 3.40307 8.73645 4.00004 8.00008 4.00004C7.26371 4.00004 6.66675 3.40307 6.66675 2.66671C6.66675 1.93033 7.26371 1.33337 8.00008 1.33337C8.73645 1.33337 9.33341 1.93033 9.33341 2.66671Z" stroke="white" stroke-linecap="round" stroke-linejoin="round"/>
<path d="M14.6667 2.66671C14.6667 3.40307 14.0697 4.00004 13.3333 4.00004C12.597 4.00004 12 3.40307 12 2.66671C12 1.93033 12.597 1.33337 13.3333 1.33337C14.0697 1.33337 14.6667 1.93033 14.6667 2.66671Z" stroke="white" stroke-linecap="round" stroke-linejoin="round"/>
<path d="M14.6667 7.99996C14.6667 8.73633 14.0697 9.33329 13.3333 9.33329C12.597 9.33329 12 8.73633 12 7.99996C12 7.26359 12.597 6.66663 13.3333 6.66663C14.0697 6.66663 14.6667 7.26359 14.6667 7.99996Z" stroke="white" stroke-linecap="round" stroke-linejoin="round"/>
<path d="M14.6667 13.3333C14.6667 14.0697 14.0697 14.6667 13.3333 14.6667C12.597 14.6667 12 14.0697 12 13.3333C12 12.597 12.597 12 13.3333 12C14.0697 12 14.6667 12.597 14.6667 13.3333Z" stroke="white" stroke-linecap="round" stroke-linejoin="round"/>
<path d="M9.33341 13.3333C9.33341 14.0697 8.73645 14.6667 8.00008 14.6667C7.26371 14.6667 6.66675 14.0697 6.66675 13.3333C6.66675 12.597 7.26371 12 8.00008 12C8.73645 12 9.33341 12.597 9.33341 13.3333Z" stroke="white" stroke-linecap="round" stroke-linejoin="round"/>
<path d="M3.99992 13.3333C3.99992 14.0697 3.40295 14.6667 2.66659 14.6667C1.93021 14.6667 1.33325 14.0697 1.33325 13.3333C1.33325 12.597 1.93021 12 2.66659 12C3.40295 12 3.99992 12.597 3.99992 13.3333Z" stroke="white" stroke-linecap="round" stroke-linejoin="round"/>
<path d="M3.99992 7.99996C3.99992 8.73633 3.40295 9.33329 2.66659 9.33329C1.93021 9.33329 1.33325 8.73633 1.33325 7.99996C1.33325 7.26359 1.93021 6.66663 2.66659 6.66663C3.40295 6.66663 3.99992 7.26359 3.99992 7.99996Z" stroke="white" stroke-linecap="round" stroke-linejoin="round"/>
<path d="M9.33341 7.99996C9.33341 8.73633 8.73645 9.33329 8.00008 9.33329C7.26371 9.33329 6.66675 8.73633 6.66675 7.99996C6.66675 7.26359 7.26371 6.66663 8.00008 6.66663C8.73645 6.66663 9.33341 7.26359 9.33341 7.99996Z" stroke="white" stroke-linecap="round" stroke-linejoin="round"/>
</g>
<defs>
<clipPath id="clip0_493_495">
<rect width="16" height="16" fill="white"/>
</clipPath>
</defs>
</svg>
